# Blender 4.1.1
# www.blender.org
mtllib player.mtl
o 立方体
v -1.895602 0.418792 1.895602
v 1.111623 -0.746837 0.000000
v -1.326921 0.741044 1.326921
v 1.111623 -0.322573 0.424264
v -1.895602 1.101208 1.895602
v 1.111623 -0.322573 -0.424264
v -1.895602 0.418792 -1.895602
v 1.111623 0.101691 0.000000
v -1.326921 0.741044 -1.326921
v -1.895602 1.101208 -1.895602
v 1.895602 0.418792 1.895602
v 1.326921 0.741044 1.326921
v 1.895602 1.101208 1.895602
v 1.895602 0.418792 -1.895602
v 1.326921 0.741044 -1.326921
v 1.895602 1.101208 -1.895602
v -1.326921 1.101208 1.326921
v 1.326921 1.101208 -1.326921
v -1.326921 1.101208 -1.326921
v 1.326921 1.101208 1.326921
v -1.326921 0.646264 1.326921
v -1.326921 0.646264 -1.326921
v 1.326921 0.646264 1.326921
v 1.326921 0.646264 -1.326921
v -1.326921 -1.170000 1.326921
v -1.326921 -1.170000 -1.326921
v 1.326921 -1.170000 -1.326921
v 1.326921 -1.170000 1.326921
v 1.326921 0.101691 0.000000
v 1.326921 -0.322573 -0.424264
v 1.326921 -0.322573 0.424264
v 1.326921 -0.746837 0.000000
v 0.750000 1.490000 -0.750000
v 0.750000 1.490000 0.750000
v -0.750000 1.490000 -0.750000
v -0.750000 1.490000 0.750000
v 0.914352 0.990000 -0.914352
v -0.914352 0.990000 0.914352
v 0.914352 0.990000 0.914352
v -0.914352 0.990000 -0.914352
v -0.000000 1.599568 0.914352
v 0.914352 1.599568 0.000000
v -0.914352 1.599568 -0.000000
v 0.000000 1.599568 -0.914352
v -0.000000 1.829506 -0.000000
v 0.000000 0.990000 1.259259
v -1.259259 0.990000 -0.000000
v 1.259259 0.990000 -0.000000
v 0.000000 0.990000 -1.259259
v 0.500000 2.440000 -0.500000
v 0.500000 2.440000 0.500000
v -0.500000 2.440000 -0.500000
v -0.500000 2.440000 0.500000
v 0.609568 1.940000 -0.609568
v -0.609568 1.940000 0.609568
v 0.609568 1.940000 0.609568
v -0.609568 1.940000 -0.609568
v -0.000000 2.549568 0.609568
v 0.609568 2.549567 0.000000
v -0.609568 2.549567 -0.000000
v 0.000000 2.549567 -0.609568
v -0.000000 2.779506 -0.000000
v 0.000000 1.940000 0.839506
v -0.839506 1.940000 -0.000000
v 0.839506 1.940000 -0.000000
v 0.000000 1.940000 -0.839506
v 0.529072 1.572666 0.529072
v 0.347285 1.592715 0.603696
v 0.291121 1.599568 0.623231
v 0.000000 1.646255 0.728701
v -0.000000 1.646255 0.728701
v -0.287864 1.618296 0.609568
v -0.532529 1.588443 0.532529
v -0.614272 1.608292 0.331708
v -0.728701 1.646254 -0.000000
v -0.728701 1.646254 -0.000000
v -0.609568 1.606731 -0.276299
v -0.595661 1.599568 -0.318691
v -0.529072 1.572666 -0.529072
v 0.532529 1.588443 -0.532529
v 0.614272 1.608292 -0.331708
v 0.728701 1.646254 -0.000000
v 0.728701 1.646254 -0.000000
v 0.609568 1.606731 0.276299
v 0.595661 1.599568 0.318691
v -0.347285 1.592715 -0.603696
v -0.291121 1.599568 -0.623231
v 0.000000 1.646254 -0.728701
v 0.000000 1.646254 -0.728701
v 0.287864 1.618296 -0.609568
v 0.821106 0.706322 0.821106
v 0.425517 0.706322 0.970328
v 0.000000 0.706322 1.098748
v -0.488835 0.706322 0.914352
v -0.821106 0.706322 0.821106
v -0.970328 0.706322 0.425517
v -1.098748 0.706322 -0.000000
v -0.914352 0.706322 -0.488835
v -0.821106 0.706322 -0.821106
v 0.970328 0.706322 -0.425517
v 0.821106 0.706322 -0.821106
v 1.098748 0.706322 -0.000000
v 0.914352 0.706322 0.488835
v -0.425517 0.706322 -0.970328
v 0.000000 0.706322 -1.098748
v 0.488835 0.706322 -0.914352
vn -1.0000 -0.0000 -0.0000
vn -0.0000 -0.0000 -1.0000
vn 1.0000 -0.0000 -0.0000
vn -0.0000 -0.0000 1.0000
vn -0.0000 -1.0000 -0.0000
vn -0.0000 1.0000 -0.0000
vn -0.0000 -0.7071 0.7071
vn -0.0000 0.7071 -0.7071
vn -0.0000 0.7071 0.7071
vn -0.0000 -0.7071 -0.7071
vn -0.0000 0.9443 -0.3291
vn 0.3291 0.9443 -0.0000
vn 0.4272 0.7969 -0.4272
vn -0.3291 0.9443 -0.0000
vn -0.0000 0.9443 0.3291
vn 0.4272 0.7969 0.4272
vn -0.0028 -0.0224 0.9997
vn -0.0300 -0.4922 0.8699
vn 0.2961 -0.4264 0.8547
vn 0.7089 -0.0242 0.7049
vn -0.4272 0.7969 0.4272
vn -0.7049 -0.0242 0.7089
vn -0.6121 -0.4212 0.6693
vn -0.2873 -0.4310 0.8554
vn -0.9997 -0.0224 -0.0028
vn -0.8699 -0.4922 -0.0300
vn -0.8547 -0.4264 0.2961
vn -0.4272 0.7969 -0.4272
vn -0.7089 -0.0242 -0.7049
vn -0.6693 -0.4212 -0.6121
vn -0.8554 -0.4310 -0.2873
vn 0.9997 -0.0224 0.0028
vn 0.8699 -0.4922 0.0300
vn 0.8547 -0.4264 -0.2961
vn 0.7049 -0.0242 -0.7089
vn 0.6693 -0.4212 0.6121
vn 0.8554 -0.4310 0.2873
vn 0.0028 -0.0224 -0.9997
vn 0.0300 -0.4922 -0.8699
vn -0.2961 -0.4264 -0.8547
vn 0.2873 -0.4310 -0.8554
vn -0.0000 0.9107 -0.4131
vn 0.4131 0.9107 -0.0000
vn 0.5497 0.6291 -0.5497
vn -0.4131 0.9107 -0.0000
vn -0.0000 0.9107 0.4131
vn 0.5497 0.6291 0.5497
vn 0.3229 -0.2593 0.9102
vn 0.6923 -0.2959 0.6582
vn 0.7068 -0.0309 0.7067
vn -0.0000 -0.0325 0.9995
vn -0.5497 0.6291 0.5497
vn -0.7067 -0.0307 0.7068
vn -0.6616 -0.2960 0.6889
vn -0.2899 -0.2894 0.9122
vn -0.0018 0.4366 0.8996
vn -0.9995 -0.0325 -0.0000
vn -0.9173 -0.3460 -0.1973
vn -0.9385 -0.2989 0.1730
vn -0.5497 0.6291 -0.5497
vn -0.7068 -0.0309 -0.7067
vn -0.9144 -0.2862 -0.2862
vn -0.9295 -0.2608 -0.2608
vn 0.7067 -0.0307 -0.7068
vn 0.9995 -0.0325 -0.0000
vn 0.9289 -0.3687 0.0336
vn 0.9144 -0.2863 0.2863
vn 0.9295 -0.2608 0.2608
vn 0.0017 0.5813 -0.8137
vn -0.2943 -0.2382 -0.9256
vn -0.0000 -0.0325 -0.9995
vn 0.2899 -0.2899 -0.9121
vn 0.6121 -0.4212 -0.6693
vn 0.2943 -0.2382 0.9256
vn -0.9111 -0.2570 0.3222
vn -0.6923 -0.2959 -0.6582
vn 0.9111 -0.2570 -0.3222
vn 0.6616 -0.2960 -0.6889
vn -0.3229 -0.2593 -0.9102
vt 0.050544 0.102480
vt 0.152908 0.204843
vt 0.050544 0.204844
vt 0.152908 0.102480
vt 0.255271 0.204843
vt 0.255271 0.102480
vt 0.357635 0.204843
vt 0.357635 0.102480
vt 0.459999 0.204843
vt 0.357635 0.307207
vt 0.255271 0.307207
vt 0.342280 0.087125
vt 0.342280 0.015471
vt 0.255271 0.000116
vt 0.270626 0.015471
vt 0.270626 0.087125
vt 0.337162 0.473160
vt 0.265508 0.419135
vt 0.337162 0.419135
vt 0.265508 0.473160
vt 0.193853 0.419135
vt 0.122199 0.473160
vt 0.193853 0.473160
vt 0.050544 0.473160
vt 0.122199 0.419135
vt 0.122199 0.544814
vt 0.193853 0.544814
vt 0.025761 0.999884
vt 0.000116 0.103534
vt 0.045306 0.837940
vt 0.027144 0.100109
vt 0.011956 0.000116
vt 0.045553 0.446941
vt 0.030557 0.249190
vt 0.008456 0.445814
vt 0.029883 0.645525
vt 0.013489 0.780827
vt 0.009177 0.141235
vt 0.050312 0.446662
vt 0.004099 0.446216
vt 0.030389 0.256685
vt 0.029651 0.637908
vt 0.142526 0.636988
vt 0.142524 0.636980
vt 0.142527 0.636980
vt 0.142518 0.636991
vt 0.142530 0.636990
vt 0.142516 0.636982
vt 0.142516 0.636973
vt 0.141874 0.638184
vt 0.132812 0.728889
vt 0.094124 0.723596
vt 0.141261 0.637362
vt 0.142508 0.636986
vt 0.142897 0.638229
vt 0.202197 0.710356
vt 0.180174 0.728863
vt 0.143717 0.637614
vt 0.234409 0.646679
vt 0.229105 0.685356
vt 0.142521 0.636995
vt 0.143758 0.636593
vt 0.215898 0.577287
vt 0.234396 0.599319
vt 0.141307 0.636340
vt 0.050544 0.627273
vt 0.055829 0.588554
vt 0.142123 0.635733
vt 0.069107 0.696689
vt 0.050582 0.674661
vt 0.143142 0.635776
vt 0.152214 0.545047
vt 0.190901 0.550365
vt 0.104830 0.545047
vt 0.402129 0.320201
vt 0.402192 0.320207
vt 0.385102 0.323533
vt 0.402071 0.320159
vt 0.446998 0.308898
vt 0.402182 0.320132
vt 0.384512 0.324589
vt 0.103119 0.418902
vt 0.050544 0.408565
vt 0.278302 0.350971
vt 0.282447 0.358392
vt 0.385639 0.325232
vt 0.292562 0.360626
vt 0.248634 0.418249
vt 0.229564 0.418902
vt 0.204920 0.412572
vt 0.204927 0.412548
vt 0.299034 0.354444
vt 0.293148 0.374261
vt 0.288304 0.389232
vt 0.386302 0.324224
vt 0.301343 0.345390
vt 0.296799 0.363740
vt 0.295312 0.352065
vt 0.286058 0.336627
vt 0.278489 0.342925
vt 0.187354 0.331954
vt 0.135530 0.358367
vt 0.096147 0.371065
vt 0.187327 0.331902
vt 0.273315 0.316389
vt 0.273330 0.316384
vt 0.283176 0.321131
vt 0.293841 0.339616
vt 0.250154 0.309664
vt 0.459999 0.102480
vt 0.357635 0.000116
vt 0.050544 0.419135
vt 0.000116 0.845132
vt 0.082779 0.563546
vt 0.143326 0.413461
vt 0.268710 0.405756
vt 0.292363 0.341047
vt 0.205339 0.312721
vt 0.223741 0.307440
vt 0.288136 0.331321
s 0
usemtl Material.001
f 5/1/1 7/2/1 1/3/1
f 10/4/2 14/5/2 7/2/2
f 16/6/3 11/7/3 14/5/3
f 13/8/4 1/9/4 11/7/4
f 14/5/5 1/10/5 7/11/5
f 13/8/6 20/12/6 17/13/6
f 10/14/6 19/15/6 18/16/6
f 3/17/3 19/18/3 17/19/3
f 9/20/4 18/21/4 19/18/4
f 12/22/1 18/21/1 15/23/1
f 3/24/2 20/25/2 12/22/2
f 3/26/6 15/23/6 9/27/6
f 22/28/1 25/29/1 21/30/1
f 22/28/2 27/31/2 26/32/2
f 27/31/3 30/33/3 32/34/3
f 31/35/3 29/36/3 23/37/3
f 23/37/4 25/29/4 28/38/4
f 26/32/5 28/38/5 25/29/5
f 6/39/3 4/40/3 2/41/3
f 8/42/7 30/33/7 29/36/7
f 2/41/8 31/35/8 32/34/8
f 2/41/9 30/33/9 6/39/9
f 8/42/10 31/35/10 4/40/10
s 1
f 44/43/11 42/44/12 33/45/13
f 44/43/11 43/46/14 45/47/6
f 43/46/14 41/48/15 45/47/6
f 42/44/12 41/48/15 34/49/16
f 46/50/17 93/51/18 92/52/19
f 34/49/16 46/50/17 39/53/20
f 46/50/17 36/54/21 38/55/22
f 38/55/22 95/56/23 94/57/24
f 47/58/25 97/59/26 96/60/27
f 36/54/21 47/58/25 38/55/22
f 47/58/25 35/61/28 40/62/29
f 40/62/29 99/63/30 98/64/31
f 48/65/32 102/66/33 100/67/34
f 33/45/13 48/65/32 37/68/35
f 48/65/32 34/49/16 39/53/20
f 39/53/20 91/69/36 103/70/37
f 49/71/38 105/72/39 104/73/40
f 35/61/28 49/71/38 40/62/29
f 49/71/38 33/45/13 37/68/35
f 37/68/35 106/74/41 49/71/38
s 0
f 5/1/1 10/4/1 7/2/1
f 10/4/2 16/6/2 14/5/2
f 16/6/3 13/8/3 11/7/3
f 13/8/4 5/110/4 1/9/4
f 14/5/5 11/7/5 1/10/5
f 17/13/6 19/15/6 5/111/6
f 19/15/6 10/14/6 5/111/6
f 5/111/6 13/8/6 17/13/6
f 18/16/6 20/12/6 16/6/6
f 20/12/6 13/8/6 16/6/6
f 16/6/6 10/14/6 18/16/6
f 3/17/3 9/20/3 19/18/3
f 9/20/4 15/23/4 18/21/4
f 12/22/1 20/25/1 18/21/1
f 3/24/2 17/112/2 20/25/2
f 3/26/6 12/22/6 15/23/6
f 22/28/1 26/32/1 25/29/1
f 22/28/2 24/113/2 27/31/2
f 27/31/3 24/113/3 30/33/3
f 24/113/3 29/36/3 30/33/3
f 32/34/3 28/38/3 27/31/3
f 28/38/3 32/34/3 31/35/3
f 29/36/3 24/113/3 23/37/3
f 28/38/3 31/35/3 23/37/3
f 23/37/4 21/30/4 25/29/4
f 26/32/5 27/31/5 28/38/5
f 6/39/3 8/42/3 4/40/3
f 8/42/7 6/39/7 30/33/7
f 2/41/8 4/40/8 31/35/8
f 2/41/9 32/34/9 30/33/9
f 8/42/10 29/36/10 31/35/10
s 1
f 44/43/11 45/47/6 42/44/12
f 44/43/11 35/61/28 43/46/14
f 43/46/14 36/54/21 41/48/15
f 42/44/12 45/47/6 41/48/15
f 92/52/19 91/69/36 39/53/20
f 39/53/20 46/50/17 92/52/19
f 34/49/16 41/48/15 46/50/17
f 46/50/17 41/48/15 36/54/21
f 94/57/24 93/51/18 46/50/17
f 46/50/17 38/55/22 94/57/24
f 95/56/23 38/55/22 96/60/27
f 38/55/22 47/58/25 96/60/27
f 36/54/21 43/46/14 47/58/25
f 47/58/25 43/46/14 35/61/28
f 97/59/26 47/58/25 98/64/31
f 47/58/25 40/62/29 98/64/31
f 100/67/34 101/114/73 37/68/35
f 37/68/35 48/65/32 100/67/34
f 33/45/13 42/44/12 48/65/32
f 48/65/32 42/44/12 34/49/16
f 103/70/37 102/66/33 48/65/32
f 48/65/32 39/53/20 103/70/37
f 99/63/30 40/62/29 104/73/40
f 40/62/29 49/71/38 104/73/40
f 35/61/28 44/43/11 49/71/38
f 49/71/38 44/43/11 33/45/13
f 101/114/73 106/74/41 37/68/35
f 106/74/41 105/72/39 49/71/38
usemtl Material
f 61/75/42 59/76/43 50/77/44
f 61/75/42 60/78/45 62/79/6
f 60/78/45 58/80/46 62/79/6
f 59/76/43 58/80/46 51/81/47
f 68/82/48 67/83/49 56/84/50
f 51/81/47 63/85/51 56/84/50
f 63/85/51 53/86/52 55/87/53
f 55/87/53 73/88/54 72/89/55
f 72/89/55 71/90/6 70/91/56
f 64/92/57 75/93/58 76/94/59
f 53/86/52 64/92/57 55/87/53
f 64/92/57 52/95/60 57/96/61
f 77/97/62 57/96/61 78/98/63
f 54/99/64 65/100/65 82/101/66
f 50/77/44 65/100/65 54/99/64
f 65/100/65 51/81/47 56/84/50
f 84/102/67 56/84/50 85/103/68
f 84/102/67 83/104/1 82/101/66
f 89/105/69 88/106/6 87/107/70
f 52/95/60 66/108/71 57/96/61
f 66/108/71 50/77/44 54/99/64
f 54/99/64 90/109/72 89/105/69
f 61/75/42 62/79/6 59/76/43
f 61/75/42 52/95/60 60/78/45
f 60/78/45 53/86/52 58/80/46
f 59/76/43 62/79/6 58/80/46
f 63/85/51 70/91/56 56/84/50
f 70/91/56 69/115/74 56/84/50
f 69/115/74 68/82/48 56/84/50
f 51/81/47 58/80/46 63/85/51
f 63/85/51 58/80/46 53/86/52
f 72/89/55 70/91/56 55/87/53
f 70/91/56 63/85/51 55/87/53
f 73/88/54 55/87/53 74/116/75
f 55/87/53 64/92/57 76/94/59
f 74/116/75 55/87/53 76/94/59
f 53/86/52 60/78/45 64/92/57
f 64/92/57 60/78/45 52/95/60
f 77/97/62 75/93/58 57/96/61
f 75/93/58 64/92/57 57/96/61
f 57/96/61 79/117/76 78/98/63
f 82/101/66 81/118/77 54/99/64
f 81/118/77 80/119/78 54/99/64
f 50/77/44 59/76/43 65/100/65
f 65/100/65 59/76/43 51/81/47
f 84/102/67 82/101/66 56/84/50
f 82/101/66 65/100/65 56/84/50
f 56/84/50 67/83/49 85/103/68
f 86/120/79 79/117/76 57/96/61
f 87/107/70 86/120/79 57/96/61
f 87/107/70 57/96/61 89/105/69
f 57/96/61 66/108/71 89/105/69
f 52/95/60 61/75/42 66/108/71
f 66/108/71 61/75/42 50/77/44
f 89/105/69 66/108/71 54/99/64
f 54/99/64 80/119/78 90/109/72
